<?xml version="1.0" encoding="utf-8"?>
<svg width="48" height="48" viewBox="0 0 48 48.000001" id="svg4793" version="1.1" xmlns="http://www.w3.org/2000/svg">
  <defs id="defs4795">
    <linearGradient id="gradient-1" gradientUnits="userSpaceOnUse" x1="23.5" y1="1005.362" x2="23.5" y2="1051.362">
      <stop offset="0" style="stop-color: #bada55"/>
      <stop offset="1" style="stop-color: #758d29"/>
    </linearGradient>
    <linearGradient id="gradient-0" gradientUnits="userSpaceOnUse" x1="26.591" y1="1009.141" x2="26.591" y2="1047.821" gradientTransform="matrix(0, -1.068618, 1.068619, -0.000001, -1072.507495, 1055.525221)">
      <stop offset="0" style="stop-color: rgb(55, 55, 55);"/>
      <stop offset="1" style="stop-color: rgb(20, 20, 20);"/>
    </linearGradient>
    <linearGradient id="gradient-2" gradientUnits="userSpaceOnUse" x1="26.591" y1="1009.141" x2="26.591" y2="1047.821" gradientTransform="matrix(0, -0.992022, 0.992021, 0, -996.574977, 1052.12275)">
      <stop offset="0" style="stop-color: rgb(63, 63, 63);"/>
      <stop offset="1" style="stop-color: rgb(22, 22, 22);"/>
    </linearGradient>
  </defs>
  <g id="layer1" transform="matrix(0, 1, -1, 0, 1052.337158, 0.025003)" style="opacity: 0.99;">
    <g id="g4136" transform="matrix(-1,0,0,1,48,0)">
      <path id="rect4749-1" transform="translate(0,1004.3622)" d="M 0 0 L 0 1 L 45 1 C 46.108 1 47 1.892 47 3 L 47 45 C 47 46.108 46.108 47 45 47 L 0 47 L 0 48 L 46 48 C 47.108 48 48 47.108 48 46 L 48 2 C 48 0.892 47.108 0 46 0 L 0 0 Z" style="display: inline; opacity: 0.81; fill-opacity: 1; stroke-width: 2; stroke-linecap: round; stroke-linejoin: miter; stroke-miterlimit: 4; stroke-dasharray: none; stroke-dashoffset: 0; stroke-opacity: 1; fill: rgb(240, 240, 240); stroke: rgb(245, 245, 245); visibility: hidden;"/>
      <path id="rect4749-48" d="M 45 1005.362 C 46.108 1005.362 47 1006.254 47 1007.362 L 47 1049.362 C 47 1050.47 46.108 1051.362 45 1051.362 L 0 1051.362 L 0 1005.362 L 45 1005.362 Z" style="display: inline; fill-opacity: 1; stroke-width: 2; stroke-linecap: round; stroke-linejoin: miter; stroke-miterlimit: 4; stroke-dasharray: none; stroke-dashoffset: 0; stroke-opacity: 1; opacity: 0.9; fill: url(#gradient-1); stroke: rgb(245, 245, 245); visibility: hidden;"/>
    </g>
    <path d="M 0.52 1004.571 C 0.52 1004.571 0.52 1007.194 0.52 1011.204 C 0.52 1024.196 0.519 1051.739 0.519 1051.739" style="stroke-width: 1px; fill: rgb(111, 110, 110); stroke: rgb(100, 100, 100); opacity: 0; visibility: hidden;">
      <title>linje</title>
    </path>
    <path d="M 1.366 1004.557 L 1.365 1051.776" style="stroke-width: 1px; fill: rgb(117, 117, 117); stroke: rgb(245, 244, 244); visibility: hidden;">
      <title>linje2</title>
    </path>
    <path style="fill: rgb(216, 216, 216); stroke: rgb(0, 0, 0); visibility: hidden;"/>
    <path d="M 47.924 1004.93 C 47.924 1004.93 9.459 1004.841 5.027 1004.93 C -0.141 1005.034 0.587 1009.589 0.587 1009.589 L 0.587 1047.238 C 0.587 1047.238 -0.036 1051.757 4.811 1051.897 C 8.117 1051.992 47.998 1051.823 47.998 1051.823" style="stroke: rgb(0, 0, 0); opacity: 0.02;"/>
    <path d="M 48.019 1005.669 C 48.019 1005.669 10.057 1005.583 5.683 1005.669 C 0.583 1005.769 1.302 1010.161 1.302 1010.161 L 1.302 1046.458 C 1.302 1046.458 0.687 1050.814 5.47 1050.949 C 8.733 1051.041 48.091 1050.877 48.091 1050.877" style="stroke: rgb(0, 0, 0); opacity: 0.05;"/>
    <path d="M 47.888 1006.512 C 47.888 1006.512 10.863 1006.429 6.597 1006.512 C 1.622 1006.608 2.324 1010.845 2.324 1010.845 L 2.324 1045.862 C 2.324 1045.862 1.724 1050.064 6.389 1050.194 C 9.571 1050.283 47.958 1050.125 47.958 1050.125" style="stroke: rgb(0, 0, 0); opacity: 0.05;"/>
    <path d="M 47.933 1007.399 C 47.933 1007.399 11.629 1007.32 7.446 1007.399 C 2.568 1007.491 3.256 1011.565 3.256 1011.565 L 3.256 1045.23 C 3.256 1045.23 2.668 1049.27 7.242 1049.396 C 10.362 1049.48 48.002 1049.328 48.002 1049.328" style="stroke: rgb(0, 0, 0); opacity: 0.05;"/>
    <path d="M 47.935 1008.33 C 47.935 1008.33 12.423 1008.255 8.332 1008.33 C 3.56 1008.419 4.233 1012.329 4.233 1012.329 L 4.233 1044.642 C 4.233 1044.642 3.658 1048.52 8.132 1048.641 C 11.184 1048.722 48.002 1048.575 48.002 1048.575" style="stroke: rgb(0, 0, 0); opacity: 0.05;"/>
    <path d="M 47.981 1009.173 C 47.981 1009.173 13.19 1009.102 9.182 1009.173 C 4.507 1009.259 5.166 1013.005 5.166 1013.005 L 5.166 1043.966 C 5.166 1043.966 4.603 1047.682 8.986 1047.798 C 11.976 1047.876 48.047 1047.734 48.047 1047.734" style="fill: url(#gradient-0); stroke: url(#gradient-2); opacity: 0.97;"/>
  </g>
</svg>