<?xml version="1.0" encoding="utf-8"?>
<svg width="48" height="48" viewBox="0 0 48 48.000001" id="svg4793" version="1.1" xmlns="http://www.w3.org/2000/svg">
  <defs id="defs4795">
    <linearGradient id="gradient-1" gradientUnits="userSpaceOnUse" x1="23.5" y1="1005.362" x2="23.5" y2="1051.362">
      <stop offset="0" style="stop-color: #bada55"/>
      <stop offset="1" style="stop-color: #758d29"/>
    </linearGradient>
  </defs>
  <g id="layer1" transform="translate(0,-1004.3622)" style="opacity: 0.7;">
    <g id="g4136" transform="matrix(-1,0,0,1,48,0)" style="opacity: 0.5;">
      <path id="rect4749-1" transform="translate(0,1004.3622)" d="M 0 0 L 0 1 L 45 1 C 46.108 1 47 1.892 47 3 L 47 45 C 47 46.108 46.108 47 45 47 L 0 47 L 0 48 L 46 48 C 47.108 48 48 47.108 48 46 L 48 2 C 48 0.892 47.108 0 46 0 L 0 0 Z" style="display: inline; opacity: 0.81; fill-opacity: 1; stroke-width: 2; stroke-linecap: round; stroke-linejoin: miter; stroke-miterlimit: 4; stroke-dasharray: none; stroke-dashoffset: 0; stroke-opacity: 1; fill: rgb(240, 240, 240); visibility: hidden; stroke: rgb(245, 245, 245);"/>
      <path id="rect4749-48" d="M 45 1005.362 C 46.108 1005.362 47 1006.254 47 1007.362 L 47 1049.362 C 47 1050.47 46.108 1051.362 45 1051.362 L 0 1051.362 L 0 1005.362 L 45 1005.362 Z" style="display: inline; fill-opacity: 1; stroke-width: 2; stroke-linecap: round; stroke-linejoin: miter; stroke-miterlimit: 4; stroke-dasharray: none; stroke-dashoffset: 0; stroke-opacity: 1; opacity: 0.9; fill: url(#gradient-1); visibility: hidden; stroke: rgb(245, 245, 245);"/>
    </g>
    <path d="M 0.52 1004.571 C 0.52 1004.571 0.52 1007.194 0.52 1011.204 C 0.52 1024.196 0.519 1051.739 0.519 1051.739" style="stroke-width: 1px; fill: rgb(111, 110, 110); stroke: rgb(100, 100, 100); opacity: 0.16;"/>
    <path d="M 1.366 1004.557 L 1.365 1051.776" style="stroke-width: 1px; fill: rgb(67, 157, 247); stroke: rgb(62, 159, 249);"/>
  </g>
</svg>